<?xml version="1.0" encoding="UTF-8" standalone="no"?>
<!-- Created with Inkscape (http://www.inkscape.org/) -->

<svg
   width="150.00009"
   height="130.27325"
   viewBox="0 0 150.00009 130.27325"
   version="1.1"
   id="svg5"
   xml:space="preserve"
   sodipodi:docname="sapp_logo.svg"
   inkscape:version="1.2.2 (b0a8486541, 2022-12-01)"
   xmlns:inkscape="http://www.inkscape.org/namespaces/inkscape"
   xmlns:sodipodi="http://sodipodi.sourceforge.net/DTD/sodipodi-0.dtd"
   xmlns="http://www.w3.org/2000/svg"
   xmlns:svg="http://www.w3.org/2000/svg"><sodipodi:namedview
     id="namedview7"
     pagecolor="#505050"
     bordercolor="#eeeeee"
     borderopacity="1"
     inkscape:showpageshadow="0"
     inkscape:pageopacity="0"
     inkscape:pagecheckerboard="0"
     inkscape:deskcolor="#505050"
     inkscape:document-units="px"
     showgrid="false"
     inkscape:zoom="1.9629579"
     inkscape:cx="122.00975"
     inkscape:cy="73.35868"
     inkscape:window-width="1366"
     inkscape:window-height="699"
     inkscape:window-x="0"
     inkscape:window-y="32"
     inkscape:window-maximized="1"
     inkscape:current-layer="g2914"
     showguides="true" /><defs
     id="defs2" /><g
     inkscape:groupmode="layer"
     id="layer9"
     inkscape:label="logo"
     transform="translate(-45.038521,-21.885387)"><g
       id="g2914"
       transform="matrix(2.1992318,0,0,2.1992318,-1356.0309,436.27842)"><g
         aria-label="S"
         transform="scale(0.94234142,1.0611865)"
         id="text980"
         style="font-weight:bold;font-size:73.8025px;font-family:'Noto Looped Lao';-inkscape-font-specification:'Noto Looped Lao, Bold';fill:#334756;stroke-width:19.7687;stroke-linecap:round"><path
           d="m 714.9717,-174.89518 v 11.38749 q -4.43248,-1.982 -8.64873,-2.99102 -4.21626,-1.00902 -7.96404,-1.00902 -4.97302,0 -7.35142,1.36939 -2.3784,1.36938 -2.3784,4.25229 0,2.16218 1.5856,3.38742 1.62164,1.1892 5.83789,2.05407 l 5.90997,1.1892 q 8.97306,1.80182 12.75687,5.47753 3.78382,3.67571 3.78382,10.45055 0,8.90099 -5.29734,13.26139 -5.26131,4.32436 -16.10826,4.32436 -5.11717,0 -10.27037,-0.97298 -5.1532,-0.97298 -10.3064,-2.88291 v -11.71182 q 5.1532,2.73876 9.94604,4.14418 4.82887,1.36938 9.29738,1.36938 4.54058,0 6.95502,-1.51352 2.41444,-1.51353 2.41444,-4.32437 0,-2.52255 -1.65767,-3.89193 -1.62164,-1.36938 -6.52259,-2.45047 l -5.36942,-1.1892 q -8.07215,-1.72975 -11.81993,-5.51357 -3.71175,-3.78382 -3.71175,-10.19829 0,-8.03611 5.18924,-12.36048 5.18924,-4.32436 14.91906,-4.32436 4.43248,0 9.1172,0.68469 4.68473,0.64865 9.69379,1.982 z"
           id="path292" /></g><g
         id="g2907"
         transform="matrix(1.3125781,0,0,1.3125781,-197.96776,58.897923)"
         style="fill:#e02500;fill-opacity:1"><path
           id="path2643"
           style="font-weight:bold;font-size:15.0172px;font-family:'Noto Looped Lao';-inkscape-font-specification:'Ubuntu Bold';fill:#e02500;fill-opacity:1;stroke-width:2.59343;stroke-linecap:round"
           d="m 685.13119,-165.59059 q 0,-0.66807 -0.30014,-1.06504 -0.30014,-0.40664 -0.89075,-0.40664 -0.19365,0 -0.35824,0.0194 -0.1646,0.009 -0.2711,0.029 v 2.60449 q 0.13554,0.0871 0.34856,0.14524 0.22268,0.0581 0.44538,0.0581 1.02629,0 1.02629,-1.38454 z m 1.4717,-0.0387 q 0,0.59061 -0.14524,1.07471 -0.14523,0.48411 -0.42601,0.83267 -0.28078,0.34855 -0.69712,0.5422 -0.41633,0.19365 -0.95852,0.19365 -0.30016,0 -0.56157,-0.0581 -0.26142,-0.0581 -0.50347,-0.16459 v 1.91706 h -1.44264 v -6.70972 q 0.19364,-0.0581 0.44538,-0.10652 0.25173,-0.0581 0.52283,-0.0968 0.28078,-0.0387 0.56156,-0.0581 0.29048,-0.0291 0.55189,-0.0291 0.62934,0 1.12313,0.19365 0.49378,0.18395 0.83267,0.53251 0.33887,0.33887 0.51315,0.83267 0.18396,0.49378 0.18396,1.10376 z m -6.47198,0.0387 q 0,-0.66807 -0.30014,-1.06504 -0.30015,-0.40664 -0.89076,-0.40664 -0.19365,0 -0.35824,0.0194 -0.1646,0.009 -0.2711,0.029 v 2.60449 q 0.13554,0.0871 0.34856,0.14524 0.22268,0.0581 0.44538,0.0581 1.0263,0 1.0263,-1.38454 z m 1.47169,-0.0387 q 0,0.59061 -0.14524,1.07471 -0.14523,0.48411 -0.42601,0.83267 -0.28079,0.34855 -0.69711,0.5422 -0.41633,0.19365 -0.95853,0.19365 -0.30016,0 -0.56156,-0.0581 -0.26141,-0.0581 -0.50347,-0.16459 v 1.91706 h -1.44265 v -6.70972 q 0.19365,-0.0581 0.44538,-0.10652 0.25173,-0.0581 0.52284,-0.0968 0.28078,-0.0387 0.56156,-0.0581 0.29047,-0.0291 0.55189,-0.0291 0.62933,0 1.12312,0.19365 0.49379,0.18395 0.83267,0.53251 0.33888,0.33887 0.51315,0.83267 0.18396,0.49378 0.18396,1.10376 z m -7.27561,1.53943 q 0.213,0 0.40665,-0.009 0.19364,-0.009 0.30983,-0.0291 v -1.09408 q -0.0871,-0.0194 -0.26142,-0.0387 -0.17428,-0.0194 -0.31951,-0.0194 -0.20333,0 -0.38729,0.0291 -0.17428,0.0194 -0.30983,0.0871 -0.13555,0.0677 -0.213,0.18395 -0.0776,0.11619 -0.0776,0.29046 0,0.33888 0.2227,0.47444 0.23237,0.12586 0.62934,0.12586 z m -0.11619,-4.22142 q 0.63903,0 1.06504,0.14524 0.42601,0.14522 0.67775,0.41633 0.26142,0.2711 0.36792,0.65838 0.10652,0.38729 0.10652,0.86173 v 3.00145 q -0.30982,0.0677 -0.86171,0.15491 -0.55187,0.0968 -1.33614,0.0968 -0.49378,0 -0.90042,-0.0872 -0.39699,-0.0871 -0.68744,-0.28078 -0.29046,-0.20333 -0.44539,-0.52284 -0.15491,-0.3195 -0.15491,-0.78425 0,-0.44538 0.17428,-0.7552 0.18396,-0.30984 0.48412,-0.4938 0.30013,-0.18396 0.68742,-0.26141 0.38729,-0.0872 0.80363,-0.0872 0.28078,0 0.49377,0.0291 0.2227,0.0194 0.35825,0.0581 v -0.13556 q 0,-0.36792 -0.22269,-0.59061 -0.22269,-0.22269 -0.77457,-0.22269 -0.36792,0 -0.72616,0.0581 -0.35824,0.0484 -0.61965,0.14522 l -0.18397,-1.16186 q 0.12587,-0.0387 0.30983,-0.0775 0.19364,-0.0484 0.41633,-0.0774 0.22269,-0.0387 0.46475,-0.0581 0.25172,-0.0291 0.50347,-0.0291 z m -3.63759,-8.89311 c -0.0126,0.0606 -0.0184,0.1225 -0.0274,0.18363 -0.008,0.0623 -0.0185,0.12306 -0.0247,0.18637 -0.01,0.0981 -0.0143,0.19747 -0.0164,0.296 -5e-4,0.0258 -0.006,0.0508 -0.006,0.0767 v 0.006 21.64074 0.003 c 0,0.0129 0.003,0.0254 0.003,0.0384 0.36594,3.4434 4.94763,3.87591 6.61058,2.57902 l 9.89401,-9.89127 c 1.38612,-2.10493 1.64797,-5.38439 0,-7.09847 l -9.92141,-9.92141 c -2.23294,-1.99942 -5.81781,-1.20158 -6.5119,1.90185 z" /></g></g></g></svg>
